<svg t="1630222551787" class="icon" viewBox="0 0 1024 1024" version="1.1" xmlns="http://www.w3.org/2000/svg" p-id="2537" width="128" height="128"><path d="M784.548 300.576c-35.986-13.6-60.57-46.9-62.628-84.824l-2.538-46.59c-0.462-8.5-7.922-13.578-14.874-13.578-1.328 0-2.678 0.176-4.002 0.522l-45.896 12.028a99.118 99.118 0 0 1-25.134 3.24c-29.534 0-57.17-12.944-75.822-35.512l-29.934-36.22c-2.852-3.452-7.124-5.434-11.726-5.434-4.596 0-8.872 1.98-11.726 5.434l-29.93 36.22c-18.652 22.568-46.29 35.512-75.826 35.512-8.47 0-16.92-1.088-25.11-3.234l-45.916-12.032a15.79 15.79 0 0 0-4.002-0.524c-6.95 0-14.41 5.078-14.874 13.582l-2.53 46.56c-2.054 37.938-26.638 71.246-62.632 84.85l-6.542 2.474h558.176l-6.534-2.474zM232.916 556.91l6.542 2.472c35.998 13.604 60.576 46.908 62.624 84.832l2.534 46.578c0.466 8.504 7.928 13.584 14.874 13.584a15.9 15.9 0 0 0 4.006-0.524l45.908-12.032a99.272 99.272 0 0 1 25.122-3.236c29.53 0 57.166 12.944 75.82 35.514l29.93 36.218c2.852 3.456 7.128 5.436 11.726 5.436 4.6 0 8.874-1.98 11.726-5.436l29.934-36.218c18.65-22.57 46.288-35.514 75.822-35.514a99.2 99.2 0 0 1 25.13 3.238l45.9 12.03a15.812 15.812 0 0 0 4.002 0.524c6.95-0.002 14.41-5.08 14.874-13.582l2.538-46.582c2.058-37.93 26.642-71.23 62.628-84.83l6.54-2.472h-558.18z" fill="#71CBDF" p-id="2538"></path><path d="M887.218 461.576c-12.438-19.194-12.438-44 0-63.192l25.618-39.53c11.922-18.394 14.874-40.9 8.1-61.748s-22.39-37.32-42.846-45.194l-43.958-16.922c-21.348-8.216-35.928-28.284-37.144-51.122l-2.51-47.036c-2.054-38.452-33.762-68.572-72.192-68.572a72.82 72.82 0 0 0-18.776 2.48l-45.512 12.148a58.128 58.128 0 0 1-14.982 1.968 57.86 57.86 0 0 1-45.116-21.494l-29.678-36.578C554.41 9.762 533.92 0 512 0s-42.412 9.762-56.224 26.784l-29.674 36.578c-11.086 13.66-27.528 21.494-45.112 21.494h-0.004a58.268 58.268 0 0 1-14.982-1.968l-45.512-12.148a72.82 72.82 0 0 0-18.776-2.48c-38.43 0-70.138 30.12-72.192 68.572l-2.51 47.036c-1.218 22.84-15.798 42.906-37.144 51.122l-43.958 16.922c-20.456 7.874-36.072 24.346-42.846 45.194s-3.822 43.354 8.1 61.748l25.616 39.53c12.438 19.192 12.438 43.998 0 63.192l-25.616 39.528c-11.922 18.394-14.874 40.9-8.1 61.748 6.774 20.846 22.39 37.318 42.846 45.194l43.958 16.922c21.348 8.216 35.928 28.284 37.144 51.122l2.51 47.036c2.054 38.456 33.764 68.576 72.192 68.574a72.886 72.886 0 0 0 18.776-2.48l45.512-12.148a58.128 58.128 0 0 1 14.982-1.968 57.862 57.862 0 0 1 45.116 21.496l29.678 36.578c13.81 17.022 34.302 26.784 56.222 26.784s42.41-9.762 56.222-26.784L597.9 796.6a57.87 57.87 0 0 1 45.118-21.496c5.05 0 10.09 0.662 14.982 1.968l45.512 12.148a72.82 72.82 0 0 0 18.776 2.48c38.428-0.002 70.138-30.124 72.192-68.574l2.51-47.036c1.218-22.84 15.798-42.906 37.144-51.122l43.958-16.922c20.456-7.874 36.072-24.346 42.846-45.194 6.774-20.846 3.822-43.354-8.1-61.748l-25.62-39.528z m20.116 96.856a57.85 57.85 0 0 1-34.384 36.264l-43.958 16.922c-26.6 10.24-44.768 35.248-46.288 63.71l-2.51 47.034c-1.646 30.86-27.084 55.032-57.908 55.034-5.05 0-10.126-0.672-15.09-1.996l-45.512-12.148a72.368 72.368 0 0 0-18.67-2.452c-21.918 0-42.41 9.764-56.224 26.788l-29.678 36.578a57.852 57.852 0 0 1-45.114 21.492 57.86 57.86 0 0 1-45.116-21.492l-29.676-36.578c-13.814-17.024-34.306-26.788-56.224-26.788-6.294 0-12.576 0.826-18.67 2.452L316.8 775.4c-4.96 1.324-10.038 1.996-15.09 1.996-30.824 0.002-56.262-24.172-57.908-55.032l-2.51-47.036c-1.52-28.462-19.69-53.47-46.288-63.71l-43.958-16.922a57.864 57.864 0 0 1-34.384-36.264 57.858 57.858 0 0 1 6.5-49.55l25.616-39.528c15.502-23.918 15.502-54.83 0-78.748l-25.616-39.528a57.858 57.858 0 0 1-6.5-49.55 57.85 57.85 0 0 1 34.384-36.264l43.958-16.922c26.6-10.24 44.768-35.248 46.288-63.71l2.51-47.036c1.646-30.858 27.084-55.032 57.908-55.032 5.05 0 10.126 0.672 15.09 1.996l45.512 12.148a72.354 72.354 0 0 0 18.668 2.452h0.008c21.912 0 42.406-9.764 56.22-26.786l29.676-36.578A57.854 57.854 0 0 1 512 14.304a57.86 57.86 0 0 1 45.114 21.492l29.68 36.578c13.812 17.022 34.304 26.786 56.222 26.786 6.294 0 12.576-0.826 18.67-2.452l45.512-12.148a58.574 58.574 0 0 1 15.09-1.996c30.824 0 56.262 24.174 57.908 55.032l2.51 47.036c1.52 28.462 19.69 53.47 46.288 63.71l43.958 16.922a57.864 57.864 0 0 1 34.384 36.264 57.852 57.852 0 0 1-6.5 49.548l-25.62 39.53c-15.5 23.918-15.5 54.83 0 78.75l25.62 39.528a57.86 57.86 0 0 1 6.498 49.548z" fill="#4B555F" p-id="2539"></path><path d="M154.084 340.212c-0.962-1.456-1.8-2.996-2.492-4.578l-13.106 5.724a44.684 44.684 0 0 0 3.66 6.732l4.328 6.558 11.938-7.878-4.328-6.558z m24.01 112.64l13.576 4.504a87.346 87.346 0 0 0 3.56-15.15l-14.158-2.014a72.964 72.964 0 0 1-2.978 12.66z m14.982-165.936l-5.056-13.378-13.38 5.058 5.056 13.378 13.38-5.058zM161.762 508.106l7.88-11.936-11.938-7.88-7.88 11.936 11.938 7.88z m-7.408-141.52l7.878 11.938 11.938-7.878-7.878-11.938-11.938 7.878z m27.728 16.054l-12.008 7.768a73.408 73.408 0 0 1 6.074 11.508l13.194-5.524a88.056 88.056 0 0 0-7.26-13.752z m91.006-177.68l-14.224-1.488a72.174 72.174 0 0 1-2.512 12.742l13.73 4.016a86.512 86.512 0 0 0 3.006-15.27z m1.682-28.91l-14.28-0.778-0.778 14.282 14.28 0.778 0.778-14.282zM181.738 427.206l14.294-0.546a86.9 86.9 0 0 0-1.988-15.438l-13.962 3.09c0.932 4.23 1.492 8.568 1.656 12.894z m64.208-167.65l-9.82-10.398a75.12 75.12 0 0 1-10.226 8.094l7.868 11.944a89.78 89.78 0 0 0 12.178-9.64z m18.46-24.846l-12.798-6.388a74.248 74.248 0 0 1-6.818 11.094l11.476 8.532a88.714 88.714 0 0 0 8.14-13.238z m-50.272 346.292l-5.056 13.378 1.922 0.728a76.246 76.246 0 0 1 10.14 4.712l6.966-12.492a90.452 90.452 0 0 0-12.046-5.598l-1.926-0.728z m5.976-304.416l-5.68-13.124c-1.128 0.488-2.272 0.952-3.426 1.39l-9.604 3.63 5.056 13.378 9.608-3.63a95.074 95.074 0 0 0 4.046-1.644z m56.024-125.654c0.052-0.94 0.146-1.866 0.28-2.778l-14.148-2.078c-0.198 1.34-0.336 2.702-0.41 4.082l-0.588 10.836 14.28 0.776 0.586-10.838z m-35.176 445.098l-9.022 11.098a74.874 74.874 0 0 1 9.36 9.07l10.812-9.366a89.66 89.66 0 0 0-11.15-10.802z m20.258 23.39l-12.282 7.334a73.606 73.606 0 0 1 5.66 11.72l13.38-5.05a87.794 87.794 0 0 0-6.758-14.004zM182.32 584.268l13.378 5.056 5.056-13.378-13.378-5.056-5.056 13.378z m-46.482-39.274a43.932 43.932 0 0 0 6.656 15.6l11.836-8.034a29.68 29.68 0 0 1-4.5-10.544l-13.992 2.978z m18.082-25.004l-12.008-7.768a43.502 43.502 0 0 0-6.306 15.77l14.062 2.612a29.32 29.32 0 0 1 4.252-10.614z m119.508 139.344a86.9 86.9 0 0 0-1.288-10.91l-14.07 2.574c0.55 3 0.91 6.066 1.078 9.11l0.226 4.212 14.284-0.772-0.23-4.214zM151.242 313.242l-13.312-5.23a43.68 43.68 0 0 0-3.052 16.05l0.004 0.638 14.298-0.638a29.54 29.54 0 0 1 2.062-10.82z m11.24 247.392l-7.948 11.89c2.836 1.896 5.92 3.48 9.166 4.704l5.242 1.98 5.056-13.378-5.242-1.982a30.88 30.88 0 0 1-6.274-3.214z m10.424-95.852a72.712 72.712 0 0 1-3.2 5.324l-4.122 6.246 11.938 7.88 4.12-6.244a87.208 87.208 0 0 0 3.828-6.364l-12.564-6.842z m670.57-48.332l-14.052-2.668a87.082 87.082 0 0 0-1.52 15.492l14.304 0.112a72.48 72.48 0 0 1 1.268-12.936z m-14.302 28.336a86.982 86.982 0 0 0 4.016 15.038l13.432-4.912a72.804 72.804 0 0 1-3.354-12.562l-14.094 2.436z m-59.852-194.736l11.22-8.87a74.096 74.096 0 0 1-7.144-10.884l-12.604 6.76a88.564 88.564 0 0 0 8.528 12.994z m-14.632-27.3l13.604-4.418a72.63 72.63 0 0 1-2.894-12.676l-14.172 1.916c0.694 5.134 1.856 10.24 3.462 15.178z m96.916 56.692l-13.378-5.058-5.056 13.378 13.378 5.058 5.056-13.378z m24.602 77.208l5.648-8.558c0.898-1.358 1.706-2.744 2.434-4.152l-12.71-6.556c-0.494 0.956-1.046 1.9-1.658 2.828l-5.65 8.562 11.936 7.876z m-126.066-163.908l14.28-0.778-0.778-14.282-14.28 0.778 0.778 14.282zM287.95 128.878l-8.632-11.404a44.374 44.374 0 0 0-11.326 12.584l12.264 7.358a30.102 30.102 0 0 1 7.694-8.538z m572.5 251.646l7.878-11.938-11.938-7.878-7.878 11.938 11.938 7.878z m-26.764 18.29l13.354 5.13a73.284 73.284 0 0 1 5.732-11.686l-12.236-7.41a87.7 87.7 0 0 0-6.85 13.966z m21.988 99.354l7.88 11.936 11.938-7.88-7.88-11.936-11.938 7.88z m12.206-193.146l10.974-9.172a44.17 44.17 0 0 0-13.154-10.676l-6.738 12.618a29.864 29.864 0 0 1 8.918 7.23zM507.182 57.484l-2.184-14.136a44.99 44.99 0 0 0-15.92 5.638l7.22 12.344a30.794 30.794 0 0 1 10.884-3.846z m-19.684 11.594l-11.024-9.11-9.11 11.026 11.024 9.11 9.11-11.026zM450.266 113.44l-10.056-10.17a75.14 75.14 0 0 1-10.036 8.328l8.144 11.758a89.78 89.78 0 0 0 11.948-9.916z m19.012-22.308l-11.024-9.112-9.112 11.026 11.024 9.112 9.112-11.026z m88.908-18.26l-9.112-11.026-11.024 9.112 9.112 11.026 11.024-9.112z m117.826 59.514l-3.626-13.834-13.834 3.626 3.626 13.834 13.834-3.626z m68.674 6.726l12.724-6.536a44.128 44.128 0 0 0-10.496-13.302l-9.34 10.834a29.848 29.848 0 0 1 7.112 9.004z m-41.002-13.978l-3.626-13.834-13.836 3.626 3.626 13.834 13.836-3.626z m-138.302-21.102l11.024-9.112-9.112-11.026-11.024 9.112 9.112 11.026z m183.206 60.144l14.28-0.776-0.8-14.472-14.256 1.16 0.776 14.088zM166.792 296.926l-5.936-13.01a44.452 44.452 0 0 0-13.8 9.8l10.354 9.868a30.154 30.154 0 0 1 9.382-6.658z m581.076 412.1a29.312 29.312 0 0 1-2.726 10.894l12.948 6.076a43.5 43.5 0 0 0 4.058-16.182l0.014-0.25-7.14-0.398-7.154-0.14z m-19.316 26.24l5.178 13.334a45.12 45.12 0 0 0 14.326-8.932l-9.698-10.512a30.874 30.874 0 0 1-9.806 6.11z m22.02-75.936l-0.358 6.604 14.28 0.776 0.358-6.604c0.128-2.324 0.368-4.666 0.714-6.96l-14.14-2.144a85.92 85.92 0 0 0-0.854 8.328z m-34.98-550.998l0.558 14.292a30.918 30.918 0 0 1 11.42 1.708l4.726-13.5a45.124 45.124 0 0 0-16.704-2.5z m33.066 586.164l14.28 0.778 0.778-14.282-14.28-0.778-0.778 14.282z m-474.224-16.67l-14.28 0.778 0.778 14.282 14.28-0.778-0.778-14.282zM645.572 124.7a77.652 77.652 0 0 1-13.074 0.294l-0.884 14.274a91.62 91.62 0 0 0 15.49-0.348l-1.532-14.22z m-27.928 597.942l3.068 13.97c4.236-0.932 8.6-1.508 12.962-1.712l-0.666-14.286c-5.17 0.242-10.34 0.924-15.364 2.028z m87.288 12.512l-3.626 13.834 4.47 1.172c3.726 0.974 7.54 1.48 11.344 1.502l0.084-14.302a31.622 31.622 0 0 1-7.804-1.036l-4.468-1.17zM607.168 119.01l-5.624 13.15a90.202 90.202 0 0 0 14.738 4.846l3.282-13.922a75.74 75.74 0 0 1-12.396-4.074zM648.494 721.2l-1.75 14.196c3.386 0.418 6.772 1.068 10.062 1.93l2.994 0.784 3.626-13.834-2.992-0.784a91.012 91.012 0 0 0-11.94-2.292z m106.638-85.31l13.53 4.634a73.42 73.42 0 0 1 5.296-11.88l-12.496-6.96a87.628 87.628 0 0 0-6.33 14.206z m104.602-157.54l-5.446-8.246a74.596 74.596 0 0 1-2.126-3.422l-12.352 7.212a89.4 89.4 0 0 0 2.542 4.092l5.442 8.244 11.94-7.88z m8.802 75.776l11.296 8.774a44.014 44.014 0 0 0 7.644-15.13l-13.768-3.884a29.72 29.72 0 0 1-5.172 10.24z m-13.292 9.726l-7.482 2.828 5.056 13.378 7.484-2.828a46.004 46.004 0 0 0 6.74-3.196l-7.166-12.378c-1.466 0.85-3.024 1.588-4.632 2.196z m15.834-42.2a28.988 28.988 0 0 1 3.538 10.846l14.206-1.664a43.2 43.2 0 0 0-5.266-16.174l-12.478 6.992z m-100.882 87.176l11.076 9.046a74.866 74.866 0 0 1 9.098-9.338l-9.334-10.836a89.166 89.166 0 0 0-10.84 11.128z m116.834-298.12l-13.624 4.36a29.572 29.572 0 0 1 1.318 11.36l14.256 1.15a43.8 43.8 0 0 0-1.95-16.87z m-66.026 266.086l5.056 13.378 13.378-5.056-5.056-13.378-13.378 5.056z m-27.374 11.834l7.324 12.286a76.222 76.222 0 0 1 11.754-5.696l-5.112-13.358a90.864 90.864 0 0 0-13.966 6.768z m-4.14-337.974l-9.502 10.69a89.544 89.544 0 0 0 12.452 9.264l7.51-12.172a75.17 75.17 0 0 1-10.46-7.782z m22.116 13.654l-5.322 13.276 13.506 5.124 5.056-13.378-13.24-5.022z m-137.974 477.428l13.838 3.626 3.626-13.834-13.838-3.626-3.626 13.834zM418.846 118.074a76.674 76.674 0 0 1-12.284 4.45l3.706 13.814a90.92 90.92 0 0 0 14.58-5.282l-6.002-12.982z m-55.272 605.416l-5.312 1.392 3.626 13.834 5.314-1.392a76.826 76.826 0 0 1 7.888-1.63l-2.156-14.14c-3.144 0.48-6.294 1.13-9.36 1.936z m-32.982 8.644l3.626 13.834 13.834-3.626-3.626-13.834-13.834 3.626z m63.11-607.312a77.404 77.404 0 0 1-7.044 0.322c-2.22-0.084-4.028-0.08-6.03-0.238l-1.126 14.258a89.88 89.88 0 0 0 7.122 0.282h0.046c2.766 0 5.57-0.128 8.336-0.382l-1.304-14.242z m-5.572 610.006a77.58 77.58 0 0 1 13.006 1.344l2.672-14.052a92.078 92.078 0 0 0-15.408-1.594l-0.27 14.302zM367.726 122.77l-13.78-3.608-3.626 13.834 13.896 3.638 3.51-13.864z m-91.594 586.256l-0.144-2.638-14.28 0.782 0.142 2.632a43.68 43.68 0 0 0 2.928 13.566l13.32-5.21a29.4 29.4 0 0 1-1.966-9.132z m63.98-593.49l-13.834-3.626-3.626 13.834 13.834 3.626 3.626-13.834z m-66.196 622.136a44.968 44.968 0 0 0 13.742 9.82l6.002-12.982a30.75 30.75 0 0 1-9.394-6.706l-10.35 9.868z m35.882-614.91l1.476-14.226a44.96 44.96 0 0 0-16.834 1.434l3.86 13.772a30.7 30.7 0 0 1 11.498-0.98z m4.802 613.562c-3.21 0.84-6.522 1.176-9.736 0.988l-0.834 14.28a45.83 45.83 0 0 0 14.196-1.432l2.156-0.566-3.632-13.834-2.15 0.564z m173.696 55.522l-10.982 9.16a44.48 44.48 0 0 0 13.094 10.718l6.792-12.588a30.288 30.288 0 0 1-8.904-7.29z m59.684-14.862l11.026 9.112 9.112-11.026-11.026-9.112-9.112 11.026z m-12.186 14.746a30.684 30.684 0 0 1-5.578 5.254l8.418 11.564a45.042 45.042 0 0 0 8.186-7.706l3.076-3.722-11.024-9.112-3.078 3.722z m31.934-38.64l-1.524 1.844 11.024 9.112 1.524-1.844a75.774 75.774 0 0 1 7.51-7.86l-9.604-10.598a90.03 90.03 0 0 0-8.93 9.346z m17.668-648.27l-9.764 10.452a89.65 89.65 0 0 0 12.222 9.572l7.808-11.984a74.868 74.868 0 0 1-10.266-8.04z m-63.558-60.94l-3.068 13.97a30.53 30.53 0 0 1 10.602 4.534l8.008-11.852a44.8 44.8 0 0 0-15.542-6.652z m-9.832 758.964h-0.012c-1.262 0-2.526-0.074-3.78-0.226l-1.708 14.2c1.812 0.218 3.658 0.328 5.488 0.328h0.016c3.812 0 7.62-0.478 11.31-1.416l-3.534-13.86a31.544 31.544 0 0 1-7.78 0.974z m-55.734-49.758a89.74 89.74 0 0 0-10.886-11.064l-9.288 10.876a75.668 75.668 0 0 1 9.148 9.298l4.714 5.706 11.026-9.11-4.714-5.706z m13.826 16.734l-11.024 9.11 9.11 11.026 11.024-9.11-9.11-11.026z m118.934-35.464l7.618 12.108a75.382 75.382 0 0 1 11.602-5.966l-5.414-13.238a89.872 89.872 0 0 0-13.806 7.096z m-175.322 5.342a75.592 75.592 0 0 1 11.772 5.626l7.264-12.322a90.016 90.016 0 0 0-14.002-6.692l-5.034 13.388zM396.028 363.546v109.446l-68.554-108.526-13.196 3.818v132.704h14.302v-107.992l68.552 108.528 13.198-3.82v-134.158zM553.314 375.436v-14.302h-88.898v143.722h88.898v-14.302h-74.596v-115.118z" fill="#4B555F" p-id="2540"></path><path d="M471.566 425.116h81.748v14.302h-81.748zM723.2 360.824l-29.502 111.256-23.502-74.304h-13.636l-23.5 74.304-29.502-111.256-13.824 3.668 35.808 135.046 13.73 0.324 24.106-76.214 24.106 76.214 13.73-0.324 35.808-135.046zM707.676 775.504l-45.958-12.23a72.356 72.356 0 0 0-18.72-2.47c-21.892 0-42.376 9.77-56.194 26.8l-29.708 36.574c-11.064 13.656-27.502 21.486-45.1 21.486-17.594 0-34.034-7.832-45.104-21.494l-29.702-36.564c-13.82-17.034-34.294-26.802-56.172-26.802-6.304 0-12.594 0.832-18.68 2.466l-50.844 13.522V1024l201.098-118.79L713.736 1024V782.576l0.278-6.348-6.338-0.724z m-8.24 223.436l-186.842-110.344-186.796 110.342V787.788l40.236-10.7a57.716 57.716 0 0 1 14.984-1.982c17.548 0 33.974 7.84 45.068 21.514l29.698 36.56c13.796 17.024 34.284 26.786 56.212 26.786s42.418-9.762 56.206-26.778l29.704-36.57c11.094-13.67 27.53-21.512 45.092-21.512 5.058 0 10.11 0.666 15.026 1.984l41.41 11.022V998.94z" fill="#4B555F" p-id="2541"></path><path d="M442.838 843.708l-29.708-36.574c-7.91-9.75-19.616-15.342-32.112-15.342-3.59 0-7.174 0.474-10.712 1.426l-27.818 7.4v169.086l158.63-93.706c-22.802-2.774-43.622-14.204-58.28-32.29z m210.852-50.504a41.252 41.252 0 0 0-10.69-1.412c-12.51 0-24.22 5.59-32.14 15.35l-29.686 36.546c-14.46 17.846-34.9 29.208-57.318 32.184l158.896 93.838v-168.766l-29.062-7.74z" fill="#F58E70" p-id="2542"></path></svg>